<svg xmlns="http://www.w3.org/2000/svg" version="1.1" xmlns:xlink="http://www.w3.org/1999/xlink" xmlns:svgjs="http://svgjs.com/svgjs" width="512" height="512" x="0" y="0" viewBox="0 0 511 511.99995" style="enable-background:new 0 0 512 512" xml:space="preserve" class=""><g><path xmlns="http://www.w3.org/2000/svg" d="m450.675781 125.457031-63.636719-63.636719-118.496093 119.488282 63.648437 63.644531zm0 0" fill="#1d4b2f" data-original="#000000" style="" class=""></path><path xmlns="http://www.w3.org/2000/svg" d="m211.527344 282.316406c-5.152344 12.371094 7.269531 24.777344 19.632812 19.609375l76.175782-39.40625-56.4375-56.4375zm0 0" fill="#1d4b2f" data-original="#000000" style="" class=""></path><path xmlns="http://www.w3.org/2000/svg" d="m508.105469 68.027344c5.859375-5.859375 5.859375-15.355469 0-21.214844l-42.421875-42.417969c-5.859375-5.859375-15.355469-5.859375-21.214844 0l-36.214844 36.214844 63.632813 63.636719zm0 0" fill="#1d4b2f" data-original="#000000" style="" class=""></path><path xmlns="http://www.w3.org/2000/svg" d="m45.5 421h15v76c0 6.0625 3.648438 11.542969 9.257812 13.855469 5.527344 2.308593 12.015626 1.078125 16.347657-3.25l86.605469-86.605469h174.789062c24.8125 0 45-20.1875 45-45v-148.933594l-47.316406 47.316406c-4.128906 4.132813-8.949219 7.382813-14.355469 9.652344l-85.882813 44.53125c-7.808593 3.371094-13.667968 4.558594-19.644531 4.558594-4.464843 0-8.769531-.859375-12.929687-2.125h-106.871094c-8.292969 0-15-6.710938-15-15 0-8.292969 6.707031-15 15-15h75.957031c-2.960937-9.820312-1.691406-20.457031 2.390625-30.21875l46.289063-89.898438c1.316406-3.324218 4.570312-8.160156 8.6875-12.273437l47.609375-47.609375h-240.933594c-24.8125 0-45 20.1875-45 45v210c0 24.8125 20.1875 45 45 45zm0 0" fill="#1d4b2f" data-original="#000000" style="" class=""></path></g></svg>